<svg viewBox="-16 0 512 512" xmlns="http://www.w3.org/2000/svg"><path d="m349.800781 171.699219-9.601562 28.5-55.199219-18.300781-55.199219 18.300781-9.601562-28.5 49.800781-16.5v-65.199219h15c16.5 0 30-13.5 30-30s-13.5-30-30-30-30 13.5-30 30h-30c0-33 27-60 60-60s60 27 60 60c0 27.898438-19.199219 51.300781-45 58.199219v37zm0 0" fill="#5a5a5a"/><path d="m411.300781 151h-81.300781v45c0 24.898438-20.097656 45-45 45s-45-20.101562-45-45v-45h-81.300781l-68.699219 68.699219v111.300781h60v181h270v-181h60v-111.300781zm0 0" fill="#73bcff"/><path d="m349.800781 171.699219-9.601562 28.5-55.199219-18.300781v-91.898438c16.5 0 30-13.5 30-30s-13.5-30-30-30v-30c33 0 60 27 60 60 0 27.898438-19.199219 51.300781-45 58.199219v37zm0 0" fill="#444"/><path d="m480 219.699219v111.300781h-60v181h-135v-271c24.902344 0 45-20.101562 45-45v-45h81.300781zm0 0" fill="#3aaaff"/><path d="m270 422c0 16.5-13.5 30-30 30l-33.601562 24.300781h-147.300782l-29.097656-24.300781c-16.5 0-30-13.5-30-30s13.5-30 30-30h210c16.5 0 30 13.5 30 30zm0 0" fill="#ffcd00"/><path d="m270 422c0 16.5-13.5 30-30 30l-33.601562 24.300781h-71.398438v-84.300781h105c16.5 0 30 13.5 30 30zm0 0" fill="#eebf00"/><path d="m270 482c0 16.5-13.5 30-30 30h-210c-16.5 0-30-13.5-30-30s13.5-30 30-30h210c16.5 0 30 13.5 30 30zm0 0" fill="#ff7816"/><path d="m270 482c0 16.5-13.5 30-30 30h-105v-60h105c16.5 0 30 13.5 30 30zm0 0" fill="#ff4b00"/></svg>